<svg id="Capa_1" enable-background="new 0 0 511.283 511.283" height="512" viewBox="0 0 511.283 511.283" width="512" xmlns="http://www.w3.org/2000/svg"><g id="XMLID_852_"><path id="XMLID_931_" d="m498.499 284.905-.592-.833-25.838-27.547v-29.135c0-22.684-12.334-43.59-32.189-54.56l-43.768-24.18v-43.21h-55.385v-11.293c0-23.405-19.042-42.447-42.447-42.447s-42.447 19.042-42.447 42.447v11.292h-255.833v302.121h83.74c2.627 29.122 27.161 52.022 56.955 52.022s54.328-22.901 56.955-52.022h125.434c2.627 29.122 27.16 52.022 56.954 52.022s54.328-22.901 56.955-52.022h37.564c20.251 0 36.727-16.476 36.727-36.727v-45.833c-.001-14.449-4.422-28.313-12.785-40.095zm-73.127-85.815c10.299 5.689 16.697 16.534 16.697 28.3v20.069h-45.957v-64.535zm-139.539-104.943c0-6.863 5.584-12.447 12.447-12.447s12.447 5.584 12.447 12.447v11.292h-24.895v-11.292zm-145.138 335.436c-14.998 0-27.2-12.202-27.2-27.2s12.202-27.2 27.2-27.2 27.2 12.202 27.2 27.2-12.202 27.2-27.2 27.2zm187.816-52.022h-136.288c-9.259-19.143-28.876-32.378-51.528-32.378s-42.269 13.235-51.528 32.378h-59.167v-24.812h31.642v-30h-31.642v-187.31h336.112v211.466c-16.575 4.163-30.305 15.572-37.601 30.656zm51.527 52.022c-14.998 0-27.199-12.202-27.199-27.2s12.201-27.2 27.199-27.2 27.2 12.202 27.2 27.2-12.202 27.2-27.2 27.2zm94.519-52.022h-42.991c-6.978-14.426-19.844-25.483-35.453-30.063v-70.039h54.461l23.999 25.587c3.973 5.885 6.229 12.641 6.628 19.703h-22.521v30h22.604v18.085c-.001 3.709-3.018 6.727-6.727 6.727z"/><path id="XMLID_941_" d="m202.419 232.371c-15.259 0-29.692 6.729-40.64 18.948-10.189 11.373-16.034 26.4-16.034 41.229 0 3.845 0 15.544 9.155 22.663 9.306 7.235 20.341 4.431 30.078 1.956 5.704-1.45 11.603-2.949 17.44-2.949s11.736 1.499 17.44 2.949c5.077 1.29 10.506 2.67 15.859 2.67 4.914 0 9.765-1.163 14.218-4.626 9.156-7.119 9.156-18.818 9.156-22.663 0-14.828-5.845-29.855-16.034-41.229-10.946-12.218-25.379-18.948-40.638-18.948zm24.831 55.721c-6.79-1.727-15.24-3.874-24.831-3.874s-18.041 2.147-24.831 3.874c-.492.125-1.015.258-1.55.392 1.994-13.914 13.876-26.112 26.381-26.112s24.387 12.198 26.381 26.112c-.536-.134-1.058-.267-1.55-.392z"/><path id="XMLID_942_" d="m156.345 233.525c-.364-8.127-6.591-15-15-15-7.846 0-15.363 6.899-15 15 .364 8.127 6.591 15 15 15 7.846 0 15.363-6.9 15-15z"/><path id="XMLID_944_" d="m263.493 218.525c-7.846 0-15.363 6.899-15 15 .364 8.127 6.591 15 15 15 7.846 0 15.363-6.899 15-15-.364-8.127-6.591-15-15-15z"/><path id="XMLID_945_" d="m176.284 215.84c8.284 0 15-6.716 15-15v-9.402c0-8.284-6.716-15-15-15s-15 6.716-15 15v9.402c0 8.284 6.716 15 15 15z"/><path id="XMLID_946_" d="m228.554 215.84c8.284 0 15-6.716 15-15v-9.402c0-8.284-6.716-15-15-15s-15 6.716-15 15v9.402c0 8.284 6.716 15 15 15z"/></g></svg>