<svg id="Capa_1" enable-background="new 0 0 512.528 512.528" height="512" viewBox="0 0 512.528 512.528" width="512" xmlns="http://www.w3.org/2000/svg"><g><path d="m26.399 414.048c-3.59-2.067-8.176-.832-10.242 2.758-10.57 18.363-16.157 39.265-16.157 60.447v26.949c0 4.142 3.358 7.5 7.5 7.5s7.5-3.358 7.5-7.5v-26.949c0-18.559 4.896-36.873 14.157-52.962 2.067-3.591.832-8.176-2.758-10.243z"/><path d="m442.398 269.968c-3.69-1.872-8.207-.395-10.08 3.3-1.872 3.695-.395 8.208 3.301 10.08 38.187 19.351 61.909 57.941 61.909 100.712 0 62.217-50.616 112.833-112.833 112.833s-112.834-50.616-112.834-112.833 50.617-112.833 112.834-112.833c7.616 0 15.231.764 22.633 2.271 4.06.829 8.019-1.794 8.846-5.853.826-4.059-1.795-8.019-5.854-8.845-8.385-1.707-17.006-2.572-25.625-2.572-58.304 0-107.615 39.236-122.92 92.689l-18.301-8.177v-29.18c25.626-19.505 41.493-50.238 41.493-83.564v-11.968h.266c19.006 0 34.469-15.462 34.469-34.469 0-12.591-6.79-23.622-16.897-29.637l.594-17.111c6.766-1.676 11.803-7.783 11.803-15.059v-13.313c0-7.854-5.865-14.348-13.443-15.373-7.062-26.792-28.861-47.702-56.2-53.42l-40.734-33.46c-5.909-4.854-14.369-4.717-20.119.324l-9.229 8.092-6.875-1.273c-6.063-1.124-12.256.839-16.566 5.248l-20.692 21.162c-27.129 5.85-48.723 26.682-55.747 53.327-7.576 1.026-13.44 7.52-13.44 15.373v13.313c0 7.272 5.031 13.375 11.79 15.056l.612 17.637c-9.637 6.118-16.052 16.878-16.052 29.114 0 18.807 15.143 34.134 33.875 34.454-.001 4.084-.002 8.177-.003 12.233-.011 35.084 17.645 67.35 45.772 86.636v12.259c-17.681.968-32.354 13.409-36.686 29.989l-17.539 7.836c-13.064 5.837-24.898 14.167-35.172 24.759-2.846 2.934-2.981 7.839-.301 10.955 1.392 1.62 3.271 2.438 5.154 2.438 1.74 0 3.484-.698 4.85-2.107 9.002-9.28 19.37-16.578 30.816-21.692l10.889-4.865v43.797c-13.637 3.369-23.781 15.703-23.781 30.366 0 17.249 14.033 31.281 31.281 31.281s31.281-14.033 31.281-31.281c0-14.663-10.144-26.997-23.781-30.366v-50.501l21.537-9.622 42.379 73.81c1.953 3.401 5.603 5.516 9.525 5.518h.006c3.919 0 7.569-2.109 9.524-5.505l43.39-75.343 16.891 7.547c-1.019 6.488-1.553 13.135-1.553 19.905 0 70.488 57.346 127.833 127.834 127.833 70.487 0 127.833-57.346 127.833-127.833 0-48.455-26.872-92.173-70.13-114.092zm-318.456 178.647c0 8.978-7.304 16.281-16.281 16.281s-16.281-7.304-16.281-16.281 7.304-16.281 16.281-16.281 16.281 7.303 16.281 16.281zm124.367-342.708h51.362c.292 0 .53.238.53.53v13.313c0 .292-.238.53-.53.53h-51.362c.283-2.359.445-4.754.445-7.187 0-2.432-.162-4.827-.445-7.186zm36.923 95.12h-.266v-38.937h.266c10.735 0 19.469 8.734 19.469 19.469s-8.733 19.468-19.469 19.468zm0-53.937h-.266v-7.208c0-1.535-.071-3.069-.192-4.601h3.598l-.414 11.927c-.899-.072-1.807-.118-2.726-.118zm-148.815-95.068c1.532-.277 2.94-1.024 4.028-2.137l22.316-22.823c.81-.827 1.976-1.195 3.11-.985l10.452 1.936c2.258.421 4.583-.221 6.311-1.735l11.962-10.489c.202-.177.5-.183.709-.012l42.197 34.661c.988.812 2.167 1.357 3.426 1.585 21.123 3.82 38.335 18.975 45.132 38.885h-41.57c-8.846-22.172-30.521-37.889-55.811-37.889-4.964 0-9.917.614-14.721 1.825-4.017 1.012-6.452 5.089-5.439 9.105 1.012 4.016 5.084 6.453 9.105 5.439 3.606-.909 7.325-1.37 11.055-1.37 24.854 0 45.075 20.221 45.075 45.075s-20.221 45.075-45.075 45.075-45.075-20.221-45.075-45.075c0-10.45 3.657-20.634 10.296-28.676 2.637-3.194 2.186-7.921-1.009-10.559-3.194-2.637-7.921-2.186-10.559 1.009-3.997 4.841-7.174 10.266-9.467 16.04h-41.594c6.799-19.912 24.022-35.065 45.146-38.885zm-58.731 68.259c-.292 0-.53-.238-.53-.53v-13.313c0-.292.238-.53.53-.53h51.361c-.288 2.377-.444 4.776-.444 7.187 0 2.433.162 4.828.445 7.187h-51.362zm11.285 15h3.616c-.119 1.536-.197 3.075-.197 4.614v7.21c-1.011.017-2.014.069-3.002.172zm-15.465 46.277c0-10.537 8.42-19.126 18.883-19.439-.001 10.716-.003 24.381-.005 38.878-10.461-.316-18.878-8.903-18.878-19.439zm33.871 46.692c.013-42.23.013-88.355.013-88.357 0-1.539.086-3.079.242-4.612h25.236c8.846 22.172 30.521 37.888 55.811 37.888s46.964-15.716 55.811-37.888h25.237c.153 1.532.24 3.072.24 4.614v88.101c0 37.99-24.054 72.054-59.856 84.764l-1.87.664c-12.956 4.6-27.216 4.572-40.155-.079l-1.081-.388c-35.678-12.822-59.64-46.863-59.628-84.707zm81.236 190.173-38.638-67.293c1.471-1.785 2.329-4.131 2.329-6.651v-21.439c3.122 1.488 6.327 2.847 9.628 4.034l1.081.388c8.142 2.926 16.7 4.389 25.261 4.389 8.462 0 16.926-1.431 24.986-4.292l1.87-.664c4.931-1.75 9.663-3.86 14.189-6.271v23.855c0 .92.128 1.811.344 2.666z"/><path d="m459.176 318.604c-4.519-2.474-10.023-2.286-14.364.492l-16.763 10.729c-27.054-14.352-59.651-14.351-86.707 0l-16.765-10.729c-4.339-2.777-9.844-2.965-14.363-.492s-7.327 7.211-7.327 12.363v30.805c-16.197 33.534-4.017 74.135 28.249 93.137l17.099 10.07c11.244 6.623 23.853 9.934 36.461 9.934 12.607 0 25.216-3.311 36.46-9.934l17.1-10.07c32.266-19.002 44.446-59.604 28.248-93.137v-30.805c-.001-5.152-2.809-9.889-7.328-12.363zm-28.532 123.381-17.1 10.07c-17.793 10.479-39.901 10.481-57.698 0l-17.099-10.07c-25.954-15.285-35.482-48.234-21.692-75.013.547-1.062.832-2.239.832-3.434v-30.916l18.323 11.727c2.895 1.854 6.54 1.931 9.507.201 24.04-13.993 53.912-13.994 77.952-.002 2.969 1.729 6.611 1.655 9.511-.199l18.323-11.728.001 30.916c0 1.195.285 2.372.832 3.434 13.79 26.779 4.261 59.728-21.692 75.014z"/><path d="m384.695 372.327c-15.54 0-28.184 11.289-28.184 25.164 0 11.556 8.774 21.311 20.684 24.251v2.346 4.917l-7.798 4.273c-3.633 1.99-4.964 6.548-2.974 10.181 1.363 2.489 3.933 3.897 6.584 3.897 1.218 0 2.453-.297 3.597-.924l8.09-4.433 8.089 4.433c1.145.627 2.38.924 3.598.924 2.651 0 5.221-1.409 6.584-3.897 1.99-3.632.659-8.191-2.973-10.181l-7.798-4.273v-4.917-2.346c11.91-2.94 20.683-12.695 20.683-24.251.001-13.875-12.642-25.164-28.182-25.164zm0 35.327c-7.146 0-13.184-4.654-13.184-10.163s6.037-10.164 13.184-10.164c7.146 0 13.183 4.654 13.183 10.164 0 5.509-6.037 10.163-13.183 10.163z"/><path d="m188.679 141.496c15.661 0 28.402-12.741 28.402-28.402s-12.741-28.402-28.402-28.402-28.402 12.741-28.402 28.402 12.741 28.402 28.402 28.402zm0-41.804c7.39 0 13.402 6.012 13.402 13.402s-6.012 13.402-13.402 13.402-13.402-6.012-13.402-13.402 6.012-13.402 13.402-13.402z"/></g></svg>